<?xml version="1.0" encoding="UTF-8" standalone="no"?>
<!-- Created with Inkscape (http://www.inkscape.org/) -->

<svg
   xmlns:dc="http://purl.org/dc/elements/1.1/"
   xmlns:cc="http://creativecommons.org/ns#"
   xmlns:rdf="http://www.w3.org/1999/02/22-rdf-syntax-ns#"
   xmlns:svg="http://www.w3.org/2000/svg"
   xmlns="http://www.w3.org/2000/svg"
   xmlns:sodipodi="http://sodipodi.sourceforge.net/DTD/sodipodi-0.dtd"
   xmlns:inkscape="http://www.inkscape.org/namespaces/inkscape"
   id="svg2"
   version="1.1"
   inkscape:version="0.48.2 r9819"
   width="132.59599"
   height="42.069241"
   xml:space="preserve"
   sodipodi:docname="logo.svg"
   inkscape:export-filename="/Volumes/MacHD/Users/jace/Projects/failconfunnel/funnel/static/img/logo.png"
   inkscape:export-xdpi="160.44977"
   inkscape:export-ydpi="160.44977"><metadata
     id="metadata8"><rdf:RDF><cc:Work
         rdf:about=""><dc:format>image/svg+xml</dc:format><dc:type
           rdf:resource="http://purl.org/dc/dcmitype/StillImage" /><dc:title></dc:title></cc:Work></rdf:RDF></metadata><defs
     id="defs6"><clipPath
       clipPathUnits="userSpaceOnUse"
       id="clipPath16"><path
         d="m 0.001,216 251.999,0 0,144 -251.999,0 0,-144 z"
         id="path18"
         inkscape:connector-curvature="0" /></clipPath><clipPath
       clipPathUnits="userSpaceOnUse"
       id="clipPath24"><path
         d="m -21.1309,499.982 271.9979,0 0,-307.809 -271.9979,0 0,307.809 z"
         id="path26"
         inkscape:connector-curvature="0" /></clipPath><clipPath
       clipPathUnits="userSpaceOnUse"
       id="clipPath40"><path
         d="m 42.707,296.721 250.614,0 0,-220.2674 -250.614,0 0,220.2674 z"
         id="path42"
         inkscape:connector-curvature="0" /></clipPath><clipPath
       clipPathUnits="userSpaceOnUse"
       id="clipPath56"><path
         d="m -35.6455,416.186 231.4835,0 0,-339.7192 -231.4835,0 0,339.7192 z"
         id="path58"
         inkscape:connector-curvature="0" /></clipPath><clipPath
       clipPathUnits="userSpaceOnUse"
       id="clipPath72"><path
         d="m -140.66,492.506 259.91,0 0,-416.0519 -259.91,0 0,416.0519 z"
         id="path74"
         inkscape:connector-curvature="0" /></clipPath><clipPath
       clipPathUnits="userSpaceOnUse"
       id="clipPath92"><path
         d="M 0,360 576,360 576,0 0,0 0,360 z"
         id="path94"
         inkscape:connector-curvature="0" /></clipPath><clipPath
       clipPathUnits="userSpaceOnUse"
       id="clipPath392"><path
         d="m 127.432,270.585 15.452,0 0,-13.582 -15.452,0 0,13.582 z"
         id="path394"
         inkscape:connector-curvature="0" /></clipPath><clipPath
       clipPathUnits="userSpaceOnUse"
       id="clipPath408"><path
         d="m 133.442,277.952 14.275,0 0,-20.948 -14.275,0 0,20.948 z"
         id="path410"
         inkscape:connector-curvature="0" /></clipPath><clipPath
       clipPathUnits="userSpaceOnUse"
       id="clipPath428"><path
         d="m 146.276,279.958 7.391,0 0,-13.812 -7.391,0 0,13.812 z"
         id="path430"
         inkscape:connector-curvature="0" /></clipPath><clipPath
       clipPathUnits="userSpaceOnUse"
       id="clipPath450"><path
         d="m 324.669,215.994 251.331,0 0,144 -251.331,0 0,-144 z"
         id="path452"
         inkscape:connector-curvature="0" /></clipPath><clipPath
       clipPathUnits="userSpaceOnUse"
       id="clipPath458"><path
         d="m 531.131,616.355 281.4,0 0,-284.935 -281.4,0 0,284.935 z"
         id="path460"
         inkscape:connector-curvature="0" /></clipPath><clipPath
       clipPathUnits="userSpaceOnUse"
       id="clipPath474"><path
         d="m 471.842,592.215 205.545,0 0,-331.347 -205.545,0 0,331.347 z"
         id="path476"
         inkscape:connector-curvature="0" /></clipPath><clipPath
       clipPathUnits="userSpaceOnUse"
       id="clipPath490"><path
         d="m 386.859,544.583 145.993,0 0,-235.594 -145.993,0 0,235.594 z"
         id="path492"
         inkscape:connector-curvature="0" /></clipPath><clipPath
       clipPathUnits="userSpaceOnUse"
       id="clipPath506"><path
         d="m 332.484,682.52 213.576,0 0,-345.921 -213.576,0 0,345.921 z"
         id="path508"
         inkscape:connector-curvature="0" /></clipPath><clipPath
       clipPathUnits="userSpaceOnUse"
       id="clipPath522"><path
         d="m 432.665,373.782 154.597,0 0,-156.559 -154.597,0 0,156.559 z"
         id="path524"
         inkscape:connector-curvature="0" /></clipPath><clipPath
       clipPathUnits="userSpaceOnUse"
       id="clipPath538"><path
         d="m 363.869,274.889 281.401,0 0,-284.9344 -281.401,0 0,284.9344 z"
         id="path540"
         inkscape:connector-curvature="0" /></clipPath><clipPath
       clipPathUnits="userSpaceOnUse"
       id="clipPath554"><path
         d="m 321.946,278.113 306.749,0 0,-371.0583 -306.749,0 0,371.0583 z"
         id="path556"
         inkscape:connector-curvature="0" /></clipPath><clipPath
       clipPathUnits="userSpaceOnUse"
       id="clipPath570"><path
         d="M 0,360 576,360 576,0 0,0 0,360 z"
         id="path572"
         inkscape:connector-curvature="0" /></clipPath><clipPath
       clipPathUnits="userSpaceOnUse"
       id="clipPath632"><path
         d="M 0.001,1 252,1 l 0,144 -251.999,0 0,-144 z"
         id="path634"
         inkscape:connector-curvature="0" /></clipPath><clipPath
       clipPathUnits="userSpaceOnUse"
       id="clipPath640"><path
         d="m -21.1309,284.982 271.9979,0 0,-307.8091 -271.9979,0 0,307.8091 z"
         id="path642"
         inkscape:connector-curvature="0" /></clipPath><clipPath
       clipPathUnits="userSpaceOnUse"
       id="clipPath656"><path
         d="m 42.707,81.7207 250.614,0 0,-220.2667 -250.614,0 0,220.2667 z"
         id="path658"
         inkscape:connector-curvature="0" /></clipPath><clipPath
       clipPathUnits="userSpaceOnUse"
       id="clipPath672"><path
         d="m -35.6455,201.186 231.4835,0 0,-339.719 -231.4835,0 0,339.719 z"
         id="path674"
         inkscape:connector-curvature="0" /></clipPath><clipPath
       clipPathUnits="userSpaceOnUse"
       id="clipPath688"><path
         d="m -140.66,277.506 259.91,0 0,-416.052 -259.91,0 0,416.052 z"
         id="path690"
         inkscape:connector-curvature="0" /></clipPath><clipPath
       clipPathUnits="userSpaceOnUse"
       id="clipPath708"><path
         d="M 0,360 576,360 576,0 0,0 0,360 z"
         id="path710"
         inkscape:connector-curvature="0" /></clipPath><clipPath
       clipPathUnits="userSpaceOnUse"
       id="clipPath742"><path
         d="m 127.432,55.5854 15.452,0 0,-13.582 -15.452,0 0,13.582 z"
         id="path744"
         inkscape:connector-curvature="0" /></clipPath><clipPath
       clipPathUnits="userSpaceOnUse"
       id="clipPath758"><path
         d="m 133.442,62.9517 14.275,0 0,-20.9478 -14.275,0 0,20.9478 z"
         id="path760"
         inkscape:connector-curvature="0" /></clipPath><clipPath
       clipPathUnits="userSpaceOnUse"
       id="clipPath778"><path
         d="m 146.276,64.9585 7.391,0 0,-13.8125 -7.391,0 0,13.8125 z"
         id="path780"
         inkscape:connector-curvature="0" /></clipPath><clipPath
       clipPathUnits="userSpaceOnUse"
       id="clipPath800"><path
         d="m 324.669,0.995 251.331,0 0,144 -251.331,0 0,-144 z"
         id="path802"
         inkscape:connector-curvature="0" /></clipPath><clipPath
       clipPathUnits="userSpaceOnUse"
       id="clipPath808"><path
         d="m 531.131,401.355 281.4,0 0,-284.935 -281.4,0 0,284.935 z"
         id="path810"
         inkscape:connector-curvature="0" /></clipPath><clipPath
       clipPathUnits="userSpaceOnUse"
       id="clipPath824"><path
         d="m 471.842,377.215 205.545,0 0,-331.3468 -205.545,0 0,331.3468 z"
         id="path826"
         inkscape:connector-curvature="0" /></clipPath><clipPath
       clipPathUnits="userSpaceOnUse"
       id="clipPath840"><path
         d="m 386.859,329.583 145.993,0 0,-235.5942 -145.993,0 0,235.5942 z"
         id="path842"
         inkscape:connector-curvature="0" /></clipPath><clipPath
       clipPathUnits="userSpaceOnUse"
       id="clipPath856"><path
         d="m 332.484,467.52 213.576,0 0,-345.921 -213.576,0 0,345.921 z"
         id="path858"
         inkscape:connector-curvature="0" /></clipPath><clipPath
       clipPathUnits="userSpaceOnUse"
       id="clipPath872"><path
         d="m 432.665,158.782 154.597,0 0,-156.55934 -154.597,0 0,156.55934 z"
         id="path874"
         inkscape:connector-curvature="0" /></clipPath><clipPath
       clipPathUnits="userSpaceOnUse"
       id="clipPath888"><path
         d="m 363.869,59.8887 281.401,0 0,-284.9347 -281.401,0 0,284.9347 z"
         id="path890"
         inkscape:connector-curvature="0" /></clipPath><clipPath
       clipPathUnits="userSpaceOnUse"
       id="clipPath904"><path
         d="m 321.946,63.1128 306.749,0 0,-371.0578 -306.749,0 0,371.0578 z"
         id="path906"
         inkscape:connector-curvature="0" /></clipPath><clipPath
       clipPathUnits="userSpaceOnUse"
       id="clipPath920"><path
         d="M 0,360 576,360 576,0 0,0 0,360 z"
         id="path922"
         inkscape:connector-curvature="0" /></clipPath><clipPath
       clipPathUnits="userSpaceOnUse"
       id="clipPath982"><path
         d="m -1498.803,1100.925 1022.415,0 0,111.944 -1022.415,0 0,-111.944 z"
         id="path984"
         inkscape:connector-curvature="0" /></clipPath><clipPath
       clipPathUnits="userSpaceOnUse"
       id="clipPath990"><path
         d="m -476.127,1092.485 -1102.678,0 0,124.106 1102.678,0 0,-124.106 z"
         id="path992"
         inkscape:connector-curvature="0" /></clipPath><clipPath
       clipPathUnits="userSpaceOnUse"
       id="clipPath998"><path
         d="m -1505.71,1291.06 1573.7198,0 0,-2548.91 -1573.7198,0 0,2548.91 z"
         id="path1000"
         inkscape:connector-curvature="0" /></clipPath><clipPath
       clipPathUnits="userSpaceOnUse"
       id="clipPath1014"><path
         d="m 253.302,-179.006 -251.999,0 0,144 251.999,0 0,-144 z"
         id="path1016"
         inkscape:connector-curvature="0" /></clipPath><clipPath
       clipPathUnits="userSpaceOnUse"
       id="clipPath1022"><path
         d="m -39.3047,221.356 281.4007,0 0,-284.9351 -281.4007,0 0,284.9351 z"
         id="path1024"
         inkscape:connector-curvature="0" /></clipPath><clipPath
       clipPathUnits="userSpaceOnUse"
       id="clipPath1038"><path
         d="m 95.8408,197.215 205.5442,0 0,-331.346 -205.5442,0 0,331.346 z"
         id="path1040"
         inkscape:connector-curvature="0" /></clipPath><clipPath
       clipPathUnits="userSpaceOnUse"
       id="clipPath1054"><path
         d="m 254.775,142.383 145.993,0 0,-235.5949 -145.993,0 0,235.5949 z"
         id="path1056"
         inkscape:connector-curvature="0" /></clipPath><clipPath
       clipPathUnits="userSpaceOnUse"
       id="clipPath1070"><path
         d="m -130.258,278.454 306.748,0 0,-371.0604 -306.748,0 0,371.0604 z"
         id="path1072"
         inkscape:connector-curvature="0" /></clipPath><clipPath
       clipPathUnits="userSpaceOnUse"
       id="clipPath1086"><path
         d="m 227.167,287.52 213.575,0 0,-345.9204 -213.575,0 0,345.9204 z"
         id="path1088"
         inkscape:connector-curvature="0" /></clipPath><clipPath
       clipPathUnits="userSpaceOnUse"
       id="clipPath1102"><path
         d="m -39.4424,107.158 213.5744,0 0,-345.92 -213.5744,0 0,345.92 z"
         id="path1104"
         inkscape:connector-curvature="0" /></clipPath><clipPath
       clipPathUnits="userSpaceOnUse"
       id="clipPath1118"><path
         d="m -57.9189,4.9624 199.7929,0 0,-183.2304 -199.7929,0 0,183.2304 z"
         id="path1120"
         inkscape:connector-curvature="0" /></clipPath><clipPath
       clipPathUnits="userSpaceOnUse"
       id="clipPath1142"><path
         d="m 253.302,-394.339 -251.999,0 0,144 251.999,0 0,-144 z"
         id="path1144"
         inkscape:connector-curvature="0" /></clipPath><clipPath
       clipPathUnits="userSpaceOnUse"
       id="clipPath1150"><path
         d="m -39.3047,6.02246 281.4007,0 0,-284.93446 -281.4007,0 0,284.93446 z"
         id="path1152"
         inkscape:connector-curvature="0" /></clipPath><clipPath
       clipPathUnits="userSpaceOnUse"
       id="clipPath1166"><path
         d="m -130.258,63.1201 306.748,0 0,-371.0591 -306.748,0 0,371.0591 z"
         id="path1168"
         inkscape:connector-curvature="0" /></clipPath><clipPath
       clipPathUnits="userSpaceOnUse"
       id="clipPath1182"><path
         d="m 227.167,72.1865 213.575,0 0,-345.9205 -213.575,0 0,345.9205 z"
         id="path1184"
         inkscape:connector-curvature="0" /></clipPath></defs><sodipodi:namedview
     pagecolor="#ffffff"
     bordercolor="#666666"
     borderopacity="1"
     objecttolerance="10"
     gridtolerance="10"
     guidetolerance="10"
     inkscape:pageopacity="0"
     inkscape:pageshadow="2"
     inkscape:window-width="1280"
     inkscape:window-height="756"
     id="namedview4"
     showgrid="false"
     fit-margin-top="5"
     fit-margin-left="0"
     fit-margin-right="0"
     fit-margin-bottom="5"
     inkscape:zoom="5.9334116"
     inkscape:cx="61.650595"
     inkscape:cy="25.465939"
     inkscape:window-x="0"
     inkscape:window-y="0"
     inkscape:window-maximized="0"
     inkscape:current-layer="g10" /><g
     id="g10"
     inkscape:groupmode="layer"
     inkscape:label="FailCon_Logo_Elements"
     transform="matrix(1.25,0,0,-1.25,-159.29,358.32337)"><g
       id="g4818"><g
         transform="translate(156.7861,268.2051)"
         id="g362"><path
           inkscape:connector-curvature="0"
           id="path364"
           style="fill:#48484a;fill-opacity:1;fill-rule:nonzero;stroke:none"
           d="M 0,0 C 0,0.953 0.193,1.86 0.58,2.717 0.969,3.574 1.492,4.33 2.145,4.982 2.797,5.636 3.553,6.156 4.41,6.545 5.268,6.933 6.172,7.127 7.127,7.127 l 4.572,0 0,-3.328 -4.572,0 C 6.646,3.799 6.182,3.689 5.725,3.473 5.27,3.254 4.865,2.969 4.512,2.614 4.158,2.261 3.871,1.855 3.654,1.4 3.436,0.943 3.328,0.479 3.328,0 l 0,-1.429 5.615,0 0,-2.839 -5.615,0 0,-6.185 -3.328,0 L 0,0 z" /></g><g
         transform="translate(174.3701,261.0801)"
         id="g366"><path
           inkscape:connector-curvature="0"
           id="path368"
           style="fill:#48484a;fill-opacity:1;fill-rule:nonzero;stroke:none"
           d="M 0,0 C 0.516,0 1.008,0.098 1.469,0.297 1.932,0.493 2.338,0.766 2.684,1.114 3.031,1.46 3.303,1.861 3.5,2.318 3.699,2.773 3.797,3.267 3.797,3.797 3.797,4.328 3.699,4.826 3.5,5.288 3.303,5.752 3.031,6.156 2.684,6.504 2.338,6.851 1.934,7.123 1.479,7.32 1.021,7.518 0.531,7.616 0,7.616 -0.529,7.616 -1.025,7.518 -1.48,7.32 -1.938,7.123 -2.338,6.851 -2.688,6.504 -3.033,6.156 -3.307,5.752 -3.502,5.288 -3.701,4.826 -3.797,4.328 -3.797,3.797 -3.797,3.281 -3.701,2.791 -3.502,2.328 -3.307,1.865 -3.033,1.46 -2.688,1.114 -2.338,0.766 -1.938,0.493 -1.48,0.297 -1.025,0.098 -0.529,0 0,0 m 7.127,3.777 0,-7.105 -3.33,0 0,1.101 C 3.238,-2.579 2.639,-2.851 2,-3.041 1.361,-3.232 0.691,-3.328 0,-3.328 c -0.98,0 -1.906,0.187 -2.779,0.561 -0.869,0.374 -1.631,0.882 -2.276,1.523 -0.646,0.639 -1.156,1.394 -1.529,2.265 -0.377,0.871 -0.564,1.797 -0.564,2.776 0,0.98 0.187,1.906 0.564,2.777 0.373,0.873 0.883,1.631 1.529,2.278 0.645,0.645 1.407,1.158 2.276,1.531 0.873,0.373 1.799,0.56 2.779,0.56 0.979,0 1.904,-0.187 2.775,-0.56 C 3.646,10.01 4.402,9.497 5.043,8.852 5.684,8.205 6.189,7.447 6.563,6.574 6.936,5.703 7.127,4.777 7.127,3.797 l 0,-0.02 z" /></g><path
         inkscape:connector-curvature="0"
         id="path370"
         style="fill:#48484a;fill-opacity:1;fill-rule:nonzero;stroke:none"
         d="m 183.167,270.962 3.328,0 0,-13.21 -3.328,0 0,13.21 z" /><path
         inkscape:connector-curvature="0"
         id="path372"
         style="fill:#48484a;fill-opacity:1;fill-rule:nonzero;stroke:none"
         d="m 189.239,275.311 3.33,0 0,-17.559 -3.33,0 0,17.559 z" /><g
         transform="translate(227.3428,272.0234)"
         id="g374"><path
           inkscape:connector-curvature="0"
           id="path376"
           style="fill:#0089ab;fill-opacity:1;fill-rule:nonzero;stroke:none"
           d="m 0,0 c 0.857,0 1.66,-0.162 2.408,-0.49 0.746,-0.326 1.403,-0.769 1.959,-1.326 0.561,-0.559 0.998,-1.213 1.319,-1.961 0.318,-0.748 0.48,-1.551 0.48,-2.41 l 0,-8.084 -3.33,0 0,8.084 c 0,0.396 -0.074,0.766 -0.223,1.114 -0.15,0.346 -0.353,0.649 -0.605,0.907 -0.252,0.26 -0.551,0.464 -0.897,0.613 -0.345,0.149 -0.718,0.226 -1.111,0.226 -0.396,0 -0.768,-0.077 -1.115,-0.226 -0.346,-0.149 -0.651,-0.353 -0.906,-0.613 -0.26,-0.258 -0.465,-0.561 -0.612,-0.907 -0.15,-0.348 -0.226,-0.718 -0.226,-1.114 l 0,-0.469 0,-7.615 -3.33,0 0,14.271 3.33,0 0,-0.713 c 0.433,0.229 0.89,0.406 1.369,0.529 C -1.014,-0.061 -0.518,0 0,0" /></g><g
         transform="translate(204.9971,275.3672)"
         id="g378"><path
           inkscape:connector-curvature="0"
           id="path380"
           style="fill:#0089ab;fill-opacity:1;fill-rule:nonzero;stroke:none"
           d="m 0,0 0,-3.299 -2.461,-0.004 c -0.592,0 -1.18,-0.136 -1.748,-0.406 C -4.764,-3.975 -5.264,-4.328 -5.695,-4.76 -6.129,-5.193 -6.48,-5.694 -6.744,-6.246 -7.025,-6.828 -7.15,-7.725 -7.15,-8.311 l 0,-1.005 c 0,-0.587 0.125,-1.485 0.406,-2.065 0.264,-0.553 0.615,-1.055 1.049,-1.487 0.431,-0.431 0.931,-0.784 1.488,-1.052 0.566,-0.268 1.154,-0.406 1.746,-0.406 l 2.461,0 0,-3.289 -2.461,0 c -1.06,0 -2.08,0.219 -3.033,0.648 -0.961,0.436 -1.815,1.027 -2.545,1.756 -0.729,0.731 -1.318,1.586 -1.754,2.545 -0.418,0.922 -0.648,2.109 -0.648,3.35 l 0,1.005 c 0,1.239 0.23,2.428 0.65,3.351 0.434,0.958 1.023,1.814 1.752,2.544 0.728,0.728 1.584,1.318 2.545,1.754 0.953,0.432 1.973,0.649 3.033,0.649 L 0,0 z" /></g><g
         transform="translate(212.5283,272.0332)"
         id="g382"><path
           inkscape:connector-curvature="0"
           id="path384"
           style="fill:#0089ab;fill-opacity:1;fill-rule:nonzero;stroke:none"
           d="m 0,0 c -3.938,0 -7.141,-3.203 -7.141,-7.141 0,-3.936 3.203,-7.14 7.141,-7.14 3.938,0 7.141,3.204 7.141,7.14 C 7.141,-3.203 3.938,0 0,0 m 0,-3.254 c 2.146,0 3.887,-1.74 3.887,-3.887 0,-2.147 -1.741,-3.886 -3.887,-3.886 -2.146,0 -3.887,1.739 -3.887,3.886 0,2.147 1.741,3.887 3.887,3.887" /></g><path
         inkscape:connector-curvature="0"
         id="path386"
         style="fill:#0089ab;fill-opacity:1;fill-rule:nonzero;stroke:none"
         d="m 183.167,275.311 3.328,0 0,-3.328 -3.328,0 0,3.328 z" /><g
         id="g388"><g
           id="g390" /><g
           id="g396"><g
             style="opacity:0.25"
             id="g398"
             clip-path="url(#clipPath392)"><g
               id="g400"
               transform="translate(142.7588,263.4971)"><path
                 inkscape:connector-curvature="0"
                 id="path402"
                 style="fill:#333333;fill-opacity:1;fill-rule:nonzero;stroke:none"
                 d="m 0,0 c -0.27,1.229 -0.893,2.309 -2.068,3.165 -1.174,0.857 -8.684,3.617 -8.942,3.715 -1.308,0.5 -2.842,0.087 -3.705,-1.099 -0.867,-1.188 -0.791,-2.776 0.088,-3.87 0.172,-0.213 5.1,-6.528 6.264,-7.377 1.162,-0.847 2.392,-1.119 3.644,-1.002 1.473,0.138 2.879,0.883 3.819,2.17 C 0.039,-3.011 0.316,-1.442 0,0" /></g></g></g></g><g
         id="g404"><g
           id="g406" /><g
           id="g412"><g
             style="opacity:0.5"
             id="g414"
             clip-path="url(#clipPath408)"><g
               id="g416"
               transform="translate(147.3311,265.9238)"><path
                 inkscape:connector-curvature="0"
                 id="path418"
                 style="fill:#333333;fill-opacity:1;fill-rule:nonzero;stroke:none"
                 d="m 0,0 c -0.596,1.73 -6.369,9.988 -6.566,10.275 -0.993,1.459 -2.872,2.135 -4.62,1.533 -1.75,-0.603 -2.814,-2.297 -2.693,-4.061 0.024,-0.345 0.568,-10.417 1.16,-12.132 0.59,-1.712 1.666,-2.88 3.045,-3.66 1.619,-0.916 3.608,-1.16 5.506,-0.506 1.897,0.655 3.314,2.072 4.025,3.791 C 0.463,-3.296 0.598,-1.73 0,0" /></g></g></g></g><g
         transform="translate(150.7861,279.1387)"
         id="g420"><path
           inkscape:connector-curvature="0"
           id="path422"
           style="fill:#0089ab;fill-opacity:1;fill-rule:nonzero;stroke:none"
           d="m 0,0 c -0.551,2.027 -2.404,3.52 -4.607,3.52 -2.206,0 -4.063,-1.496 -4.612,-3.528 -0.107,-0.398 -3.402,-11.955 -3.402,-14.114 0,-1.493 0.363,-2.783 1,-3.904 0.283,-0.499 0.623,-0.966 1.01,-1.402 1.466,-1.66 3.611,-2.707 6.004,-2.707 2.39,0 4.537,1.047 6.003,2.707 0.385,0.435 0.721,0.897 1.006,1.392 0.639,1.116 1.002,2.403 1.002,3.914 C 3.404,-11.94 0.109,-0.4 0,0" /></g><g
         id="g424"><g
           id="g426" /><g
           id="g432"><g
             style="opacity:0.14999402"
             id="g434"
             clip-path="url(#clipPath428)"><g
               id="g436"
               transform="translate(146.3057,272.2852)"><path
                 inkscape:connector-curvature="0"
                 id="path438"
                 style="fill:#ffffff;fill-opacity:1;fill-rule:nonzero;stroke:none"
                 d="m 0,0 c 0.236,-3.859 2.557,-6.24 4.67,-6.136 1.445,0.072 2.258,0.755 2.691,1.843 C 6.438,-0.122 4.541,6.529 4.459,6.832 4.418,6.979 4.369,7.123 4.316,7.266 3.807,7.556 3.285,7.705 2.789,7.668 0.678,7.517 -0.209,3.416 0,0" /></g></g></g></g><g
         transform="translate(146.1924,259.4199)"
         id="g440"><path
           inkscape:connector-curvature="0"
           id="path442"
           style="fill:#48484a;fill-opacity:1;fill-rule:nonzero;stroke:none"
           d="M 0,0 C 4.742,0 6.998,1.686 6.998,1.686 6.713,1.19 6.377,0.719 5.994,0.287 4.529,-1.371 2.387,-2.416 0,-2.416 c -2.387,0 -4.527,1.045 -5.994,2.703 C -6.377,0.722 -6.717,1.188 -7,1.686 -7,1.686 -4.742,0 0,0" /></g></g></g></svg>